<svg viewBox="0 0 31 30" fill="none" xmlns="http://www.w3.org/2000/svg">
  <title>American Express</title>
  <path d="M29 0H2C0.89543 0 0 0.89543 0 2V28C0 29.1046 0.89543 30 2 30H29C30.1046 30 31 29.1046 31 28V2C31 0.89543 30.1046 0 29 0Z" fill="#006FCF"></path>
  <path fill-rule="evenodd" clip-rule="evenodd" d="M26.3959 4.05664L25.3323 6.84909L24.3447 4.13211H18.0394V6.77362L16.8239 4.13211H11.734L6.49219 15.8302H10.6704V25.9434H23.2812L24.9525 24.0566L26.6238 25.9434H31.1053V22.5466L28.6749 20.0566L31.1053 17.6422V14.2453H28.9028V7.60381L28.523 8.73589L26.3959 14.3208H24.4207L22.2936 8.73589L21.8378 7.60381V14.2453H17.1277L16.444 12.5849H12.2658L11.5821 14.2453H9.07511L12.8735 5.71702H15.8363L19.5587 14.0748V5.71702H23.2052L24.8765 10.0189L25.3323 11.2265L25.7881 10.0189L27.4594 5.71702H31.1053V4.05664H26.3959ZM12.4177 24.3585V15.8302L19.5587 15.9057V17.717H14.5448V19.2265H19.4068V21.0378H14.5448V22.5472H19.5587V24.3585H12.4177ZM19.5587 24.3585H22.2936L24.8765 21.5661L27.6113 24.2831H30.4222L26.3959 20.0566L30.4222 15.8302H27.6113L25.0284 18.6227L22.4455 15.8302H19.5587L23.585 20.1321L19.5587 24.3585Z" fill="white"></path>
  <path d="M14.3929 7.60381L13.9371 8.66041L13.1014 10.8491H15.7603L14.8487 8.66041L14.3929 7.60381Z" fill="white"></path>
</svg>