<svg fill="none" viewBox="0 0 42 42" xmlns="http://www.w3.org/2000/svg"><path d="M37.35 8.4v11.812C37.35 31.08 21.6 39.9 21.6 39.9S5.85 31.08 5.85 20.212V8.4L21.6 2.1l15.75 6.3Z" stroke-width="3.15" stroke-linejoin="round" stroke-linecap="round" stroke="#000" fill="#00B3DC"></path><path d="M13.2 17.456c0-3.147 2.28-4.856 4.57-4.856 1.42 0 2.872.65 3.83 2.024a4.645 4.645 0 0 1 3.834-2.017c2.287 0 4.566 1.696 4.566 4.849 0 1.832-1.014 3.626-2.491 5.488-1.111 1.4-2.528 2.889-4.067 4.507a299.01 299.01 0 0 0-1.586 1.675l-.256.274-.256-.273a296.87 296.87 0 0 0-1.589-1.68c-1.538-1.616-2.953-3.104-4.063-4.503-1.478-1.862-2.492-3.656-2.492-5.488Z" stroke-width="3.15" stroke="#000" fill="#fff"></path></svg>