<svg xmlns="http://www.w3.org/2000/svg" viewBox="0 0 40 40.05">
    <title>instagram</title>
    <rect width="40" height="40.05" fill="#CCCCCC"/>
    <path d="M20.13,15a5.14,5.14,0,1,0,5.14,5.13A5.13,5.13,0,0,0,20.13,15Zm0,8.46a3.33,3.33,0,1,1,3.34-3.33,3.33,3.33,0,0,1-3.34,3.33Z" transform="translate(0 0.03)" fill="#000"/><path d="M20,11.8c2.67,0,3,0,4,.06a5.66,5.66,0,0,1,1.86.34,3.23,3.23,0,0,1,1.15.75,3.12,3.12,0,0,1,.74,1.15A5.33,5.33,0,0,1,28.13,16c.05,1.05.06,1.37.06,4s0,3-.06,4a5.41,5.41,0,0,1-.34,1.86A3.14,3.14,0,0,1,27,27.05a3.06,3.06,0,0,1-1.15.75,5.57,5.57,0,0,1-1.86.34c-1.05.05-1.36.06-4,.06s-3,0-4-.06a5.33,5.33,0,0,1-1.85-.35,3.28,3.28,0,0,1-1.9-1.89A5.63,5.63,0,0,1,11.85,24c0-1.06,0-1.37,0-4s0-3,.06-4a5.33,5.33,0,0,1,.34-1.86,3.21,3.21,0,0,1,1.9-1.89A5.58,5.58,0,0,1,16,11.86c1.05,0,1.37-.06,4-.06M20,10c-2.72,0-3.06,0-4.13.06a7.37,7.37,0,0,0-2.42.46,4.86,4.86,0,0,0-1.77,1.16,5,5,0,0,0-1.16,1.77,7.48,7.48,0,0,0-.46,2.43C10,16.94,10,17.28,10,20s0,3.06.06,4.12a7.48,7.48,0,0,0,.46,2.43,4.86,4.86,0,0,0,1.16,1.77,5,5,0,0,0,1.77,1.16,7.48,7.48,0,0,0,2.43.46c1.06,0,1.4.06,4.12.06s3.06,0,4.12-.06a7.48,7.48,0,0,0,2.43-.46,4.86,4.86,0,0,0,1.77-1.16,5,5,0,0,0,1.16-1.77,7.48,7.48,0,0,0,.46-2.43c0-1.06.06-1.4.06-4.12s0-3.06-.06-4.12a7.48,7.48,0,0,0-.46-2.43,5.19,5.19,0,0,0-2.93-2.93,7.22,7.22,0,0,0-2.43-.46C23.05,10,22.71,10,20,10Z" transform="translate(0 0.03)" fill="#000"/><circle cx="25.48" cy="14.94" r="1.2" fill="#000"/>
</svg>