<svg width="40" height="40" viewBox="0 0 40 40" fill="none" xmlns="http://www.w3.org/2000/svg">
<g id="Group">
<rect id="Rectangle" width="40" height="40" rx="3" fill="#D1D1D1"/>
<path id="Note" d="M24.1245 9.00047H20.5253V24.2922C20.5253 26.2961 19.0857 27.5853 17.3348 27.5853C15.584 27.5853 14.0277 26.2961 14.0277 24.2922C14.0277 21.9769 15.8371 20.7544 18.2494 21.0075V17.1327C17.8992 17.0741 17.549 17.0548 17.257 17.0548C13.3076 17.0548 10 20.2261 10 24.1557C10 28.3193 13.2683 31.5098 17.2762 31.5098C20.7976 31.5098 24.5332 28.9222 24.5332 24.039V16.0817C26.0895 17.638 27.9768 18.1246 30 18.1246V14.5446C27.5099 14.3693 24.747 12.7351 24.1245 9V9.00047Z" fill="#231F20"/>
</g>
</svg>
