<svg viewBox="0 0 40 40.5" fill="none" xmlns="http://www.w3.org/2000/svg">
    <title>youtube</title>
    <rect width="40" height="40.5" fill="#CCCCCC"/>
    <path fill-rule="evenodd" clip-rule="evenodd" d="M27.7532 13.4239C28.6108 13.6572 29.2862 14.3446 29.5154 15.2174C29.9319 16.7995 29.9319 20.1004 29.9319 20.1004C29.9319 20.1004 29.9319 23.4012 29.5154 24.9833C29.2862 25.8561 28.6108 26.5149 27.7532 26.7482C26.1988 27.1721 19.9659 27.1721 19.9659 27.1721C19.9659 27.1721 13.7331 27.1721 12.1787 26.7482C11.3211 26.5149 10.6457 25.8561 10.4165 24.9833C10 23.4012 10 20.1004 10 20.1004C10 20.1004 10 16.7995 10.4165 15.2174C10.6457 14.3446 11.3211 13.6572 12.1787 13.4239C13.7331 13 19.9659 13 19.9659 13C19.9659 13 26.1988 13 27.7532 13.4239ZM17.9274 17.1034V23.0973L23.1369 20.1004L17.9274 17.1034Z" fill="black"/>
</svg>
