<svg viewBox="0 0 44 30" fill="none" xmlns="http://www.w3.org/2000/svg"><title>Zip Pay</title>
  <path d="M2.38785 16.5121L2.745 19.3244H15.2485L14.8393 16.1037H9.00906L8.95812 15.704L14.3277 12.0774L13.9695 9.2589H1.46655L1.87518 12.4801H7.71506L7.76655 12.8824L2.38785 16.5121Z" fill="black"></path>
  <path d="M15.4221 9.2589L16.7006 19.3244H29.2137L27.9347 9.2589H15.4221Z" fill="#AA8FFF"></path>
  <path d="M42.3375 12.8829C42.049 10.6201 40.2102 9.24898 37.7112 9.25883H29.3884L30.6663 19.3243H34.4105L34.1542 17.3114H38.1166C41.236 17.3114 42.663 15.4328 42.3375 12.8829ZM37.7128 14.4899L33.7981 14.494L33.4914 12.0783L37.4281 12.0814C38.3542 12.0918 38.8277 12.5957 38.9038 13.2857C38.951 13.7289 38.7408 14.4893 37.7128 14.4893V14.4899Z" fill="black"></path>
  <path d="M19.0369 7.77997C19.6954 7.09655 19.5806 5.95844 18.7805 5.23792C17.9803 4.51741 16.7978 4.48733 16.1392 5.17075C15.4806 5.85417 15.5954 6.99228 16.3956 7.7128C17.1958 8.43332 18.3783 8.46339 19.0369 7.77997Z" fill="black"></path>
  </svg>